<?xml version="1.0" encoding="UTF-8"?>
<svg width="40px" height="40px" viewBox="0 0 40 40" version="1.1" xmlns="http://www.w3.org/2000/svg" xmlns:xlink="http://www.w3.org/1999/xlink">
    <!-- Generator: Sketch 48.2 (47327) - http://www.bohemiancoding.com/sketch -->
    <title>Artboard</title>
    <desc>Created with Sketch.</desc>
    <defs></defs>
    <g id="Symbols" stroke="none" stroke-width="1" fill="none" fill-rule="evenodd" opacity="0.600000024">
        <g id="Artboard" fill="#393841" fill-rule="nonzero">
            <path d="M21.4,5.00003672 C17.9300783,5.00003672 15.4144533,6.38809195 14.09375,8.43393954 C12.8523441,10.3571485 12.7320316,12.8015742 13.56875,15.0564664 C13.2597658,15.4466827 13,15.9539641 13.065625,16.7511198 C13.065625,16.7650559 13.065625,16.7817798 13.065625,16.7957159 C13.1832033,17.6653406 13.4402342,18.2785376 13.765625,18.71335 C13.9242191,18.9251816 14.159375,18.9307565 14.35625,19.047821 C14.4738283,19.8198915 14.6980467,20.6031118 15.0125,21.2330319 C15.1902342,21.589801 15.3679691,21.9047611 15.559375,22.1695508 C15.6441408,22.2866161 15.75625,22.3618715 15.84375,22.4594258 C15.8355467,23.0698356 15.8,23.6189254 15.75625,24.1986752 L15.734375,24.1986752 C15.6113283,24.1958882 15.4910158,24.2265482 15.384375,24.2878675 C15.384375,24.2878675 14.1949217,25.0515768 13.21875,26.4507803 C8.8902342,27.4709174 6,31.0135228 6,34.255105 C6,34.6481083 6.3144533,34.9686432 6.7,34.9686432 L18.359375,34.9686432 C18.4933592,35.0104523 18.6410158,35.0104523 18.775,34.9686432 L21.26875,34.9686432 C21.4027342,35.0104523 21.5503908,35.0104523 21.684375,34.9686432 L33.3,34.9686432 C33.6855467,34.9686432 34,34.6481083 34,34.255105 C34,30.3473685 30.5410158,27.1977657 26.715625,26.5176746 C26.5351566,26.2723958 25.7941408,25.2884936 24.746875,24.5108482 C24.7332033,24.494125 24.7195316,24.4801882 24.703125,24.4662521 C24.6675783,24.4411669 24.6292967,24.424443 24.59375,24.3993579 C24.4707033,24.2990166 24.3148441,24.2432714 24.15625,24.2432714 C24.1152342,23.6412235 24.0988283,23.0754098 24.090625,22.4817238 C24.1671875,22.3869574 24.2792967,22.3228503 24.353125,22.214147 C24.5390625,21.9437831 24.7304691,21.6120991 24.9,21.25533 C25.2007816,20.6254098 25.4359375,19.8839986 25.578125,19.1593114 C25.8023441,19.0422468 26.059375,19.0338849 26.234375,18.8025422 C26.5707033,18.3537937 26.7675783,17.7155117 26.846875,16.840312 C26.890625,16.3218823 26.8550783,15.8536228 26.69375,15.4578317 C26.6417967,15.3324052 26.5542967,15.21534 26.475,15.1010626 C26.7019533,14.6021431 26.846875,14.0307552 26.9125,13.3841111 C27.0082033,12.4587412 26.9699217,11.4274558 26.715625,10.4184678 C26.4613283,9.40948047 25.9882816,8.42836538 25.228125,7.67580515 C24.571875,7.02637403 23.6503908,6.62779585 22.58125,6.5163055 L22.034375,5.40140198 C21.9167967,5.15333613 21.6707033,4.99724963 21.4,5.00003672 Z M20.984375,6.47170936 L21.465625,7.45282445 C21.5832033,7.7008903 21.8292967,7.85697679 22.1,7.85418971 C23.0734375,7.85418971 23.7460941,8.18587369 24.265625,8.70151639 C24.7851566,9.21715908 25.1515625,9.9557832 25.359375,10.7752369 C25.5671875,11.5946914 25.6109375,12.4726773 25.534375,13.2280247 C25.4578125,13.983372 25.2253908,14.610505 25.053125,14.8334857 C24.9136717,15.0146574 24.8699217,15.2571491 24.9355467,15.4773427 C25.0011717,15.6975363 25.1652342,15.8731331 25.38125,15.9483892 C25.3785158,15.9539641 25.3675783,15.9623254 25.38125,15.9929854 C25.4304691,16.1156248 25.4960941,16.3692655 25.46875,16.7065236 C25.4058592,17.4005509 25.2363283,17.776831 25.11875,17.9329175 C25.0011717,18.089004 24.9410158,18.0667059 24.965625,18.0667059 C24.6265625,18.0722808 24.3394533,18.3259208 24.2875,18.6687538 C24.1972658,19.2763766 23.9210941,20.026149 23.63125,20.630984 C23.4863283,20.934795 23.3441408,21.1995848 23.215625,21.3891184 C23.0871092,21.578652 22.9503908,21.6957172 23.01875,21.6566952 C22.8082033,21.7821217 22.6742191,22.0106773 22.66875,22.2587431 C22.66875,23.2287092 22.7371092,23.8446932 22.8,24.8453193 C22.8,24.8676174 22.8,24.8899154 22.8,24.9122135 C22.8,24.9205755 22.8,24.9261496 22.8,24.9345116 C22.8,24.9484477 22.8,24.9651716 22.8,24.9791077 C22.8,25.0515768 22.7945316,25.1268322 22.75625,25.2020884 C22.7179691,25.2801317 22.6523441,25.3526007 22.559375,25.4473672 C22.3761717,25.6313266 22.0863283,25.8069234 21.771875,25.9602228 C21.4902342,26.0967983 21.2222658,26.1999274 21.00625,26.2723958 C20.9707033,26.2835448 20.9296875,26.3058429 20.896875,26.3169919 C20.7601566,26.358801 20.6125,26.3950352 20.56875,26.4061842 L19.43125,26.4061842 C19.3136717,26.3755242 18.7914066,26.2333745 18.228125,25.9602228 C17.9136717,25.8069234 17.6238283,25.6313266 17.440625,25.4473672 C17.2574217,25.2634085 17.2,25.1212581 17.2,24.9791077 C17.2054691,24.8815535 17.1890625,24.7812122 17.15625,24.6892328 C17.2164066,23.76665 17.265625,23.1869001 17.265625,22.1918489 C17.2683592,21.9354211 17.134375,21.6957172 16.915625,21.567503 C16.9675783,21.598163 16.8308592,21.5061836 16.696875,21.3222242 C16.5628908,21.1382655 16.4042967,20.8818376 16.259375,20.5863879 C15.9667967,19.9982761 15.7042967,19.2429295 15.646875,18.6241577 C15.6167967,18.2813247 15.3488283,18.0081737 15.0125,17.9775136 C15.0371092,17.9830885 15.0207033,17.9775136 14.96875,17.9775136 C14.9414066,17.9607904 14.903125,17.9273433 14.859375,17.8660233 C14.7363283,17.7015748 14.5613283,17.2974225 14.465625,16.6396294 C14.465625,16.6256933 14.465625,16.6312675 14.465625,16.6173313 C14.4628908,16.6061823 14.4683592,16.6061823 14.465625,16.5950333 C14.4546875,16.0543054 14.7828125,15.7532815 14.728125,15.7923027 C15.0015625,15.597195 15.1027342,15.234851 14.96875,14.922678 C14.1101566,12.9437246 14.2332033,10.8254079 15.275,9.214372 C16.2648441,7.68138003 18.1324217,6.58041263 20.984375,6.47170936 Z M15.275,26.1609054 C15.3542967,26.4953765 15.4472658,26.8409966 15.559375,27.2535109 C15.8191408,28.2123279 16.1582033,29.3244443 16.5,30.3975388 C16.9238283,31.7214869 17.2875,32.7750704 17.55,33.5415667 L15.428125,33.5415667 L13.30625,30.8212021 L14.6625,29.840087 C14.903125,29.6728515 15.0152342,29.3690405 14.946875,29.0819526 L14.44375,27.1420205 C14.7335941,26.7350811 15.0261717,26.3978223 15.275,26.1609054 Z M24.68125,26.33929 C25.0777342,26.7322933 25.38125,27.1085734 25.534375,27.298107 L25.053125,29.0819526 C24.9847658,29.3690405 25.096875,29.6728515 25.3375,29.840087 L26.69375,30.8212021 L24.571875,33.5415667 L22.45,33.5415667 C22.7125,32.7750704 23.0761717,31.7214869 23.5,30.3975388 C23.8417967,29.3244443 24.1808592,28.2123279 24.440625,27.2535109 C24.5335941,26.9078908 24.6101566,26.6291649 24.68125,26.33929 Z M16.871875,26.8075495 C17.1207033,26.9887211 17.3832033,27.1308715 17.6375,27.2535109 C18.0148441,27.4374703 18.3785158,27.5628968 18.665625,27.6548761 L19.3,29.2603372 L18.5125,32.0252979 C18.2964842,31.3842288 18.0832033,30.7264357 17.834375,29.9515774 C17.4953125,28.892419 17.1453125,27.7970265 16.89375,26.8744437 C16.8855467,26.8493585 16.8773441,26.8326346 16.871875,26.8075495 Z M23.128125,26.8075495 C23.1226566,26.8326346 23.1144533,26.8493585 23.10625,26.8744437 C22.8546875,27.7970265 22.5046875,28.892419 22.165625,29.9515774 C21.9167967,30.7264357 21.7035158,31.3842288 21.4875,32.0252979 L20.7,29.2603372 L21.334375,27.6548761 C21.6214842,27.5628968 21.9851566,27.4374703 22.3625,27.2535109 C22.4910158,27.1921915 22.6277342,27.1280844 22.75625,27.0528282 C22.8300783,27.0110192 22.9011717,26.966423 22.975,26.9190398 C23.0269533,26.8855927 23.0761717,26.8437837 23.128125,26.8075495 Z M13.175,27.8778568 L13.459375,28.9704623 L11.884375,30.1076639 C11.7285158,30.2219413 11.6273441,30.3975388 11.6027342,30.5926473 C11.578125,30.7849679 11.6328125,30.9800757 11.753125,31.1333751 L13.634375,33.5415667 L7.553125,33.5415667 C7.9386717,31.3730797 9.9730467,28.7697797 13.175,27.8778568 Z M26.803125,27.9447511 C29.6140625,28.5802461 32.0203125,30.9103944 32.425,33.5415667 L26.365625,33.5415667 L28.246875,31.1333751 C28.3234375,31.0441828 28.3753908,30.9354796 28.4,30.8212021 C28.4027342,30.7905421 28.4027342,30.7626699 28.4,30.7320098 C28.4164066,30.4867311 28.3097658,30.2526013 28.115625,30.1076639 L26.540625,28.9704623 L26.803125,27.9447511 Z" id="Shape"></path>
        </g>
    </g>
</svg>